<svg id="chat-right-dots" xmlns="http://www.w3.org/2000/svg" width="26.794" height="25.61" viewBox="0 0 26.794 25.61">
  <g id="Grupo_254" data-name="Grupo 254">
    <path id="Trazado_328" data-name="Trazado 328" d="M3.349,1.675A1.675,1.675,0,0,0,1.675,3.349v13.4a1.675,1.675,0,0,0,1.675,1.675H19.4a3.349,3.349,0,0,1,2.367.981l3.35,3.35V3.349a1.675,1.675,0,0,0-1.675-1.675ZM23.445,0a3.349,3.349,0,0,1,3.349,3.349V24.773a.837.837,0,0,1-1.43.591l-4.778-4.778A1.675,1.675,0,0,0,19.4,20.1H3.349A3.349,3.349,0,0,1,0,16.746V3.349A3.349,3.349,0,0,1,3.349,0Z" transform="translate(0 0)" fill="#c9c9c9"/>
    <path id="Trazado_329" data-name="Trazado 329" d="M7.1,7.925A1.675,1.675,0,1,1,5.425,6.25,1.675,1.675,0,0,1,7.1,7.925Zm6.7,0A1.675,1.675,0,1,1,12.123,6.25,1.675,1.675,0,0,1,13.8,7.925Zm6.7,0A1.675,1.675,0,1,1,18.822,6.25,1.675,1.675,0,0,1,20.5,7.925Z" transform="translate(1.274 2.123)" fill="#c9c9c9"/>
  </g>
</svg>
