<svg id="group" xmlns="http://www.w3.org/2000/svg" width="27" height="25.2" viewBox="0 0 27 25.2">
  <path id="Trazado_51" data-name="Trazado 51" d="M29.063,28.125H27.188V25.313A2.813,2.813,0,0,0,24.375,22.5h-3.75a2.813,2.813,0,0,0-2.812,2.813v2.813H15.938V25.313a4.688,4.688,0,0,1,4.688-4.687h3.75a4.688,4.688,0,0,1,4.688,4.688Z" transform="translate(-2.063 -2.925)" fill="#c9c9c9"/>
  <path id="Trazado_52" data-name="Trazado 52" d="M22.5,11.25a2.813,2.813,0,1,1-2.812,2.813A2.813,2.813,0,0,1,22.5,11.25m0-1.875a4.688,4.688,0,1,0,4.688,4.688A4.688,4.688,0,0,0,22.5,9.375Z" transform="translate(-2.063 -2.342)" fill="#c9c9c9"/>
  <path id="Trazado_53" data-name="Trazado 53" d="M14.063,20.625H12.188V17.813A2.813,2.813,0,0,0,9.375,15H5.625a2.812,2.812,0,0,0-2.812,2.813v2.813H.938V17.813a4.688,4.688,0,0,1,4.688-4.687h3.75a4.688,4.688,0,0,1,4.688,4.688Z" transform="translate(-0.938 -2.505)" fill="#c9c9c9"/>
  <path id="Trazado_54" data-name="Trazado 54" d="M7.5,3.75A2.813,2.813,0,1,1,4.688,6.563,2.813,2.813,0,0,1,7.5,3.75m0-1.875a4.688,4.688,0,1,0,4.688,4.688A4.687,4.687,0,0,0,7.5,1.875Z" transform="translate(-0.938 -1.875)" fill="#c9c9c9"/>
</svg>
