<svg id="micro_fundador" data-name="micro fundador" xmlns="http://www.w3.org/2000/svg" width="18.003" height="28.006" viewBox="0 0 18.003 28.006">
  <path id="Trazado_146" data-name="Trazado 146" d="M26.5,21v3a7,7,0,0,1-14,0V21h-2v3a9,9,0,0,0,8,8.942V35h-4v2h10V35h-4v-2.06A9,9,0,0,0,28.5,24V21Z" transform="translate(-10.5 -8.998)" fill="#fff"/>
  <path id="Trazado_147" data-name="Trazado 147" d="M21.5,23a5,5,0,0,0,5-5V8a5,5,0,1,0-10,0V18A5,5,0,0,0,21.5,23Z" transform="translate(-12.499 -3)" fill="#fff"/>
</svg>
