<svg id="music-note-list" xmlns="http://www.w3.org/2000/svg" width="27.506" height="23.688" viewBox="0 0 27.506 23.688">
  <g id="Grupo_1" data-name="Grupo 1">
    <path id="Trazado_27" data-name="Trazado 27" d="M24.939,28.426c0,2.031-2.058,3.676-4.595,3.676s-4.595-1.645-4.595-3.676,2.058-3.676,4.595-3.676S24.939,26.395,24.939,28.426Z" transform="translate(-4.094 -8.413)" fill="#c9c9c9"/>
    <path id="Trazado_28" data-name="Trazado 28" d="M26.588,6.75V23.492H24.75V6.75Z" transform="translate(-5.927 -3.48)" fill="#c9c9c9" fill-rule="evenodd"/>
    <path id="Trazado_29" data-name="Trazado 29" d="M24.75,5.686a1.838,1.838,0,0,1,1.478-1.8l5.514-1.1a1.838,1.838,0,0,1,2.2,1.8V7.855L24.75,9.692Z" transform="translate(-6.434 -2.746)" fill="#c9c9c9"/>
    <path id="Trazado_30" data-name="Trazado 30" d="M0,22.372a.919.919,0,0,1,.919-.919H7.351a.919.919,0,0,1,0,1.838H.919A.919.919,0,0,1,0,22.372ZM0,15.02A.919.919,0,0,1,.919,14.1H14.7a.919.919,0,1,1,0,1.838H.919A.919.919,0,0,1,0,15.02ZM0,7.669A.919.919,0,0,1,.919,6.75H14.7a.919.919,0,1,1,0,1.838H.919A.919.919,0,0,1,0,7.669Z" transform="translate(0 -3.48)" fill="#c9c9c9" fill-rule="evenodd"/>
  </g>
</svg>
