<svg id="voice-activate" xmlns="http://www.w3.org/2000/svg" width="25.311" height="26.25" viewBox="0 0 25.311 26.25">
  <path id="Trazado_55" data-name="Trazado 55" d="M24.375,28.125H22.5V25.313H18.75a4.692,4.692,0,0,1-4.687-4.688v-1.2L11.891,18.7a.938.938,0,0,1-.507-1.372l2.678-4.465V10.313A8.447,8.447,0,0,1,22.5,1.875h4.687V3.75H22.5a6.57,6.57,0,0,0-6.562,6.563v2.813a.937.937,0,0,1-.134.482l-2.21,3.686,1.7.567a.937.937,0,0,1,.64.89v1.875a2.815,2.815,0,0,0,2.813,2.813h4.688a.938.938,0,0,1,.938.938Z" transform="translate(-1.876 -1.875)" fill="#c9c9c9"/>
  <path id="Trazado_56" data-name="Trazado 56" d="M17.813,11.25h3.75v1.875h-3.75Z" transform="translate(-1.876 -1.875)" fill="#c9c9c9"/>
  <path id="Trazado_57" data-name="Trazado 57" d="M8.749,23.641a6.562,6.562,0,0,1,0-9.782L10,15.256a4.687,4.687,0,0,0,0,6.987Z" transform="translate(-1.876 -1.875)" fill="#c9c9c9"/>
  <path id="Trazado_58" data-name="Trazado 58" d="M6,27A10.314,10.314,0,0,1,6,10.5L7.125,12a8.438,8.438,0,0,0,0,13.5Z" transform="translate(-1.876 -1.875)" fill="#c9c9c9"/>
</svg>
