<svg xmlns="http://www.w3.org/2000/svg" width="18.915" height="18.915" viewBox="0 0 18.915 18.915">
  <g id="warning" transform="translate(0 0)">
    <path id="Trazado_78" data-name="Trazado 78" d="M10.458,1a9.458,9.458,0,1,0,9.458,9.458A9.458,9.458,0,0,0,10.458,1Zm0,17.564a8.107,8.107,0,1,1,8.107-8.107,8.107,8.107,0,0,1-8.107,8.107Z" transform="translate(-1 -1)" fill="#fcfcfc"/>
    <path id="Trazado_79" data-name="Trazado 79" d="M7.5,4H8.551V9.78H7.5Z" transform="translate(1.432 0.636)" fill="#fcfcfc"/>
    <path id="Trazado_80" data-name="Trazado 80" d="M8.038,11a.788.788,0,1,0,.788.788A.788.788,0,0,0,8.038,11Z" transform="translate(1.42 2.871)" fill="#fcfcfc"/>
  </g>
</svg>
