<svg xmlns="http://www.w3.org/2000/svg" width="42.75" height="42.75" viewBox="0 0 42.75 42.75">
  <path id="Trazado_32" data-name="Trazado 32" d="M51.75,9v4.5H45v6.75H40.5V13.5H33.75V9H40.5V2.25H45V9ZM32.625,24.75a3.376,3.376,0,1,0-3.377-3.375A3.376,3.376,0,0,0,32.625,24.75ZM40.5,32.027l-1.154-1.283a4.5,4.5,0,0,0-6.7,0l-1.476,1.645L20.25,20.25l-6.75,7.5V13.5H29.25V9H13.5A4.5,4.5,0,0,0,9,13.5v27A4.5,4.5,0,0,0,13.5,45h27A4.5,4.5,0,0,0,45,40.5V24.75H40.5Z" transform="translate(-9 -2.25)" fill="#fcfcfc"/>
</svg>
