<svg xmlns="http://www.w3.org/2000/svg" width="38.149" height="42.157" viewBox="0 0 38.149 42.157">
  <g id="Grupo_289" data-name="Grupo 289" transform="translate(-44.98 -221.843)">
    <g id="Grupo_258" data-name="Grupo 258" transform="translate(46.054 222.973)">
      <g id="estrellas">
        <g id="star-filled" transform="translate(0 3.514)">
          <path id="Trazado_93" data-name="Trazado 93" d="M7.527,3.125,5.819,6.587,2,7.139l2.764,2.7-.653,3.8,3.417-1.795,3.417,1.795-.653-3.8,2.764-2.692L9.236,6.587Z" transform="translate(-2 -3.125)" fill="#e33941" stroke="#e33941" stroke-width="1"/>
        </g>
        <g id="star-filled-2" data-name="star-filled" transform="translate(12.973)">
          <path id="Trazado_93-2" data-name="Trazado 93" d="M7.527,3.125,5.819,6.587,2,7.139l2.764,2.7-.653,3.8,3.417-1.795,3.417,1.795-.653-3.8,2.764-2.692L9.236,6.587Z" transform="translate(-2 -3.125)" fill="none" stroke="#e62f2c" stroke-width="1"/>
        </g>
        <g id="star-filled-3" data-name="star-filled" transform="translate(24.945 3.514)">
          <path id="Trazado_93-3" data-name="Trazado 93" d="M7.527,3.125,5.819,6.587,2,7.139l2.764,2.7-.653,3.8,3.417-1.795,3.417,1.795-.653-3.8,2.764-2.692L9.236,6.587Z" transform="translate(-2 -3.125)" fill="none" stroke="#e33941" stroke-width="1"/>
        </g>
      </g>
    </g>
    <g id="people" transform="translate(48.618 234.423)">
      <g id="Grupo_275" data-name="Grupo 275" transform="translate(0 6)">
        <path id="Trazado_364" data-name="Trazado 364" d="M29.471,29.577a1.924,1.924,0,0,0,1.965-1.965c0-1.965-1.965-7.859-9.824-7.859s-9.824,5.894-9.824,7.859a1.924,1.924,0,0,0,1.965,1.965ZM13.8,27.612l-.043-.008a6.03,6.03,0,0,1,1.493-3.379c1.085-1.271,2.99-2.507,6.366-2.507s5.279,1.238,6.366,2.507A6.05,6.05,0,0,1,29.471,27.6l-.016,0-.028,0Zm7.816-11.789a3.93,3.93,0,1,0-3.93-3.93A3.93,3.93,0,0,0,21.612,15.824Zm5.894-3.93A5.894,5.894,0,1,1,21.612,6a5.894,5.894,0,0,1,5.894,5.894ZM13.628,20.3a11.553,11.553,0,0,0-2.417-.485q-.692-.066-1.387-.065C1.965,19.753,0,25.648,0,27.612a1.736,1.736,0,0,0,1.965,1.965h8.283a4.4,4.4,0,0,1-.424-1.965,9.016,9.016,0,0,1,2.142-5.706,10.4,10.4,0,0,1,1.662-1.6ZM9.667,21.718a10.792,10.792,0,0,0-1.808,5.894H1.965a6.029,6.029,0,0,1,1.493-3.387c1.071-1.25,2.931-2.468,6.209-2.505ZM2.947,12.877a5.894,5.894,0,1,1,5.894,5.894A5.894,5.894,0,0,1,2.947,12.877Zm5.894-3.93a3.93,3.93,0,1,0,3.93,3.93A3.93,3.93,0,0,0,8.841,8.947Z" transform="translate(0 -6)" fill="#fcfcfc"/>
      </g>
    </g>
  </g>
</svg>
