<?xml version="1.0" encoding="UTF-8" standalone="no"?>
<!DOCTYPE svg PUBLIC "-//W3C//DTD SVG 1.1//EN" "http://www.w3.org/Graphics/SVG/1.1/DTD/svg11.dtd">
<svg width="100%" height="100%" viewBox="0 0 26 27" version="1.1" xmlns="http://www.w3.org/2000/svg" xmlns:xlink="http://www.w3.org/1999/xlink" xml:space="preserve" xmlns:serif="http://www.serif.com/" style="fill-rule:evenodd;clip-rule:evenodd;stroke-linejoin:round;stroke-miterlimit:2;">
    <g id="Trazado_55" transform="matrix(1,0,0,1,-1.876,-1.875)">
        <path d="M24.375,28.125L22.5,28.125L22.5,25.313L18.75,25.313C16.179,25.31 14.065,23.196 14.063,20.625L14.063,19.425L11.891,18.7C11.509,18.572 11.25,18.213 11.25,17.81C11.25,17.64 11.297,17.474 11.384,17.328L14.062,12.863L14.062,10.313C14.067,5.686 17.873,1.88 22.5,1.875L27.187,1.875L27.187,3.75L22.5,3.75C18.901,3.754 15.942,6.714 15.938,10.313L15.938,13.126C15.938,13.296 15.892,13.462 15.804,13.608L13.594,17.294L15.294,17.861C15.676,17.989 15.935,18.349 15.934,18.751L15.934,20.626C15.935,22.169 17.204,23.438 18.747,23.439L23.435,23.439C23.95,23.439 24.373,23.862 24.373,24.377L24.375,28.125Z" style="fill:rgb(201,201,201);fill-rule:nonzero;"/>
    </g>
    <g id="Trazado_56" transform="matrix(1,0,0,1,-1.876,-1.875)">
        <rect x="17.813" y="11.25" width="3.75" height="1.875" style="fill:rgb(201,201,201);fill-rule:nonzero;"/>
    </g>
    <g id="Trazado_57" transform="matrix(1,0,0,1,-1.876,-1.875)">
        <path d="M8.749,23.641C7.358,22.397 6.562,20.616 6.562,18.75C6.562,16.884 7.358,15.103 8.749,13.859L10,15.256C9.006,16.145 8.438,17.416 8.438,18.75C8.438,20.083 9.006,21.354 10,22.243L8.749,23.641Z" style="fill:rgb(201,201,201);fill-rule:nonzero;"/>
    </g>
    <g id="Trazado_58" transform="matrix(1,0,0,1,-1.876,-1.875)">
        <path d="M6,27C3.406,25.054 1.876,21.993 1.876,18.75C1.876,15.507 3.406,12.446 6,10.5L7.125,12C5.002,13.592 3.75,16.096 3.75,18.75C3.75,21.404 5.002,23.908 7.125,25.5L6,27Z" style="fill:rgb(201,201,201);fill-rule:nonzero;"/>
    </g>
</svg>
