<svg id="devices-solid" xmlns="http://www.w3.org/2000/svg" width="26.047" height="22.792" viewBox="0 0 26.047 22.792">
  <path id="Trazado_254" data-name="Trazado 254" d="M29.529,12.639H23.017a1.628,1.628,0,0,0-1.628,1.628v12.21A1.628,1.628,0,0,0,23.017,28.1h6.512a1.628,1.628,0,0,0,1.628-1.628V14.267A1.628,1.628,0,0,0,29.529,12.639Zm0,1.628V24.849H23.017V14.267Z" transform="translate(-5.109 -5.313)" fill="#fcfcfc"/>
  <path id="Trazado_255" data-name="Trazado 255" d="M23.108,3.889H3.572A1.628,1.628,0,0,0,1.944,5.517V18.541a1.628,1.628,0,0,0,1.628,1.628h6.512V21.8H7.9a.977.977,0,0,0-1.074.814.977.977,0,0,0,1.074.814h8.628v-.3H16.6V18.541H3.572V5.517H23.108v4.07h1.628V5.517A1.628,1.628,0,0,0,23.108,3.889Z" transform="translate(-1.944 -3.889)" fill="#fcfcfc"/>
</svg>
