<?xml version="1.0" encoding="UTF-8" standalone="no"?>
<!DOCTYPE svg PUBLIC "-//W3C//DTD SVG 1.1//EN" "http://www.w3.org/Graphics/SVG/1.1/DTD/svg11.dtd">
<svg width="100%" height="100%" viewBox="0 0 33 29" version="1.1" xmlns="http://www.w3.org/2000/svg" xmlns:xlink="http://www.w3.org/1999/xlink" xml:space="preserve" xmlns:serif="http://www.serif.com/" style="fill-rule:evenodd;clip-rule:evenodd;stroke-linejoin:round;stroke-miterlimit:2;">
    <g id="school-outline" transform="matrix(1,0,0,1,-1.09353,-3.281)">
        <g id="Grupo_159">
            <g id="school-outline1" serif:id="school-outline">
                <path id="Trazado_247" d="M17.5,3.281C17.69,3.281 17.878,3.331 18.043,3.425L33.356,12.175C33.697,12.369 33.907,12.733 33.907,13.125C33.907,13.517 33.697,13.881 33.356,14.075L18.043,22.825C17.707,23.017 17.294,23.017 16.958,22.825L1.645,14.075C1.304,13.881 1.094,13.517 1.094,13.125C1.094,12.733 1.304,12.369 1.645,12.175L16.958,3.425C17.123,3.331 17.31,3.281 17.5,3.281ZM30.608,13.125L17.5,5.635L4.392,13.125L17.5,20.615L30.608,13.125Z" style="fill:rgb(252,252,252);fill-rule:nonzero;"/>
                <path id="Trazado_248" d="M17.5,31.719C17.314,31.719 17.131,31.671 16.969,31.581L7.125,26.113C6.778,25.92 6.562,25.554 6.562,25.157L6.562,16.407C6.562,15.807 7.056,15.313 7.656,15.313C8.256,15.313 8.75,15.807 8.75,16.407L8.75,24.514L17.5,29.375L26.25,24.514L26.25,16.406C26.25,15.806 26.744,15.312 27.344,15.312C27.944,15.312 28.438,15.806 28.438,16.406L28.438,25.156C28.438,25.553 28.222,25.919 27.875,26.112L18.031,31.581C17.869,31.671 17.686,31.719 17.5,31.719Z" style="fill:rgb(252,252,252);fill-rule:nonzero;"/>
                <path id="Trazado_249" d="M32.813,26.25C32.213,26.25 31.719,25.756 31.719,25.156L31.719,13.125C31.719,12.525 32.213,12.031 32.813,12.031C33.413,12.031 33.907,12.525 33.907,13.125L33.907,25.156C33.907,25.756 33.413,26.25 32.813,26.25Z" style="fill:rgb(252,252,252);fill-rule:nonzero;"/>
                <path id="Trazado_250" d="M17.5,31.719C16.9,31.719 16.406,31.225 16.406,30.625L16.406,21.875C16.406,21.275 16.9,20.781 17.5,20.781C18.1,20.781 18.594,21.275 18.594,21.875L18.594,30.625C18.594,31.225 18.1,31.719 17.5,31.719Z" style="fill:rgb(252,252,252);fill-rule:nonzero;"/>
            </g>
        </g>
    </g>
</svg>
