<?xml version="1.0" encoding="UTF-8" standalone="no"?>
<!DOCTYPE svg PUBLIC "-//W3C//DTD SVG 1.1//EN" "http://www.w3.org/Graphics/SVG/1.1/DTD/svg11.dtd">
<svg width="100%" height="100%" viewBox="0 0 24 26" version="1.1" xmlns="http://www.w3.org/2000/svg" xmlns:xlink="http://www.w3.org/1999/xlink" xml:space="preserve" xmlns:serif="http://www.serif.com/" style="fill-rule:evenodd;clip-rule:evenodd;stroke-linejoin:round;stroke-miterlimit:2;">
    <g id="Trazado_115" transform="matrix(1,0,0,1,-4.47954,-3.50195)">
        <g id="Grupo_11">
            <path id="Trazado_1151" serif:id="Trazado_115" d="M27.367,8.571L23.109,3.971C22.838,3.672 22.453,3.502 22.05,3.502C21.647,3.502 21.262,3.672 20.991,3.971L5.893,20.162L4.515,26.55C4.417,27.021 4.524,27.512 4.808,27.9C5.078,28.271 5.507,28.493 5.966,28.5C6.07,28.511 6.174,28.511 6.278,28.5L12.292,27.02L27.367,10.846C27.946,10.203 27.946,9.214 27.367,8.571ZM11.567,25.615L5.93,26.885L7.214,20.949L18.514,8.867L22.867,13.541L11.567,25.615ZM23.835,12.415L19.481,7.738L22.006,5.038L26.286,9.712L23.835,12.415Z" style="fill:rgb(252,252,252);fill-rule:nonzero;"/>
        </g>
    </g>
</svg>
