<svg id="estrellas" xmlns="http://www.w3.org/2000/svg" width="48.651" height="16.768" viewBox="0 0 48.651 16.768">
  <g id="star-filled" transform="translate(0 7.965)">
    <path id="Trazado_93" data-name="Trazado 93" d="M6.628,3.125,5.2,6.024,2,6.486,4.314,8.743l-.547,3.185,2.861-1.5,2.861,1.5L8.941,8.743l2.314-2.254-3.2-.465Z" transform="translate(-2 -3.125)" fill="#e33941"/>
  </g>
  <g id="star-filled-2" data-name="star-filled" transform="translate(9.255 2.942)">
    <path id="Trazado_93-2" data-name="Trazado 93" d="M6.628,3.125,5.2,6.024,2,6.486,4.314,8.743l-.547,3.185,2.861-1.5,2.861,1.5L8.941,8.743l2.314-2.254-3.2-.465Z" transform="translate(-2 -3.125)" fill="#e33941"/>
  </g>
  <g id="star-filled-3" data-name="star-filled" transform="translate(20.117 0)">
    <path id="Trazado_93-3" data-name="Trazado 93" d="M6.628,3.125,5.2,6.024,2,6.486,4.314,8.743l-.547,3.185,2.861-1.5,2.861,1.5L8.941,8.743l2.314-2.254-3.2-.465Z" transform="translate(-2 -3.125)" fill="#e33941"/>
  </g>
  <g id="star" transform="translate(39.396 7.965)">
    <path id="Trazado_94" data-name="Trazado 94" d="M6.628,4.546,7.5,6.3l.145.314.314.047,1.937.28L8.514,8.293l-.236.229.057.314.33,1.927L6.933,9.856l-.3-.129-.292.154-1.732.9L4.917,8.85l.057-.314-.233-.242L3.352,6.926l1.937-.28L5.6,6.6l.145-.314.88-1.739m0-1.421L5.2,6.024,2,6.486,4.314,8.743l-.547,3.185,2.861-1.5,2.861,1.5L8.941,8.743l2.314-2.254-3.2-.465Z" transform="translate(-2 -3.125)" fill="#e33941"/>
  </g>
  <g id="star-2" data-name="star" transform="translate(30.164 2.942)">
    <path id="Trazado_94-2" data-name="Trazado 94" d="M6.628,4.546,7.5,6.3l.145.314.314.047,1.937.28L8.514,8.293l-.236.229.057.314.33,1.927L6.933,9.856l-.3-.129-.292.154-1.732.9L4.917,8.85l.057-.314-.233-.242L3.352,6.926l1.937-.28L5.6,6.6l.145-.314.88-1.739m0-1.421L5.2,6.024,2,6.486,4.314,8.743l-.547,3.185,2.861-1.5,2.861,1.5L8.941,8.743l2.314-2.254-3.2-.465Z" transform="translate(-2 -3.125)" fill="#e33941"/>
  </g>
</svg>
