<svg xmlns="http://www.w3.org/2000/svg" width="163.023" height="188.171" viewBox="0 0 163.023 188.171">
  <g id="fingerprint-recognition" transform="translate(-5.576 -1.858)">
    <path id="Trazado_300" data-name="Trazado 300" d="M16.466,28.308a4.827,4.827,0,0,1-2.884-8.651A96.922,96.922,0,0,1,72.888,1.915c16.676,0,40.624,2.821,59.557,16.425a4.827,4.827,0,0,1,1.128,6.708,4.89,4.89,0,0,1-6.771,1.066A94.038,94.038,0,0,0,72.888,11.507,87.769,87.769,0,0,0,19.6,27.305,4.639,4.639,0,0,1,16.466,28.308Z" transform="translate(14.35 0)" fill="#ff2251"/>
    <path id="Trazado_301" data-name="Trazado 301" d="M163.911,56.182a4.89,4.89,0,0,1-3.95-2.069c-10.846-15.3-30.218-35.672-72.723-35.672A87.769,87.769,0,0,0,14.327,54.176a4.827,4.827,0,0,1-6.708,1.066,4.765,4.765,0,0,1-.94-6.959A97.423,97.423,0,0,1,87.238,8.85c35.17,0,61.5,13.04,80.5,39.747a4.827,4.827,0,0,1-1.191,6.708A4.953,4.953,0,0,1,163.911,56.182Z" transform="translate(0 16.324)" fill="#ff2251"/>
    <path id="Trazado_302" data-name="Trazado 302" d="M58.759,157.481a4.89,4.89,0,0,1-4.514-3.072A4.7,4.7,0,0,1,57,148.14c27.4-10.532,43.884-32.1,43.884-57.739A17.554,17.554,0,0,0,82.08,71.593c-11.661,0-17.3,6.269-18.808,21a26.769,26.769,0,0,1-28.337,24.011A26.769,26.769,0,0,1,7.853,87.83a73.412,73.412,0,0,1,74.227-72.1,75.231,75.231,0,0,1,75.23,74.793,116.982,116.982,0,0,1-8.714,40.748,4.89,4.89,0,0,1-6.269,2.57,4.765,4.765,0,0,1-2.57-6.269,108.143,108.143,0,0,0,7.962-37.051,65.513,65.513,0,0,0-65.639-65.2A63.82,63.82,0,0,0,17.006,88.018,17.366,17.366,0,0,0,34.5,107.2,17.178,17.178,0,0,0,53.3,91.655c2.257-19.5,11.849-29.4,28.588-29.4A27.02,27.02,0,0,1,110.229,90.84c0,29.716-18.808,54.667-50.154,66.642a5.769,5.769,0,0,1-1.317,0Z" transform="translate(5.158 32.51)" fill="#ff2251"/>
    <path id="Trazado_303" data-name="Trazado 303" d="M89.759,136.5a5.078,5.078,0,0,1-3.26-1.254,4.765,4.765,0,0,1,0-6.771,79.18,79.18,0,0,0,22.193-54.417c0-9.78-3.009-41.69-42-41.69a42.819,42.819,0,0,0-30.97,11.723A38.681,38.681,0,0,0,24.246,72.052a4.827,4.827,0,0,1-4.827,4.765,4.765,4.765,0,0,1-4.827-4.765A48.461,48.461,0,0,1,28.509,37.32,52.285,52.285,0,0,1,66.124,22.776c38.117,0,51.658,27.584,51.658,51.282a88.333,88.333,0,0,1-24.45,60.686,4.7,4.7,0,0,1-3.573,1.755Z" transform="translate(21.114 48.978)" fill="#ff2251"/>
    <path id="Trazado_304" data-name="Trazado 304" d="M26.168,87.928a88.65,88.65,0,0,1-9.78-.564,4.8,4.8,0,1,1,1.066-9.529c15.61,1.755,27.9-1,36.612-8.275a39.935,39.935,0,0,0,13.291-28.4A4.7,4.7,0,0,1,72.5,36.709a4.89,4.89,0,0,1,4.514,5.078,49.464,49.464,0,0,1-16.8,35.233A51.408,51.408,0,0,1,26.168,87.928Z" transform="translate(15.055 81.626)" fill="#ff2251"/>
  </g>
</svg>
