<svg xmlns="http://www.w3.org/2000/svg" width="58.109" height="37.712" viewBox="0 0 58.109 37.712">
  <g id="medio-de-comunicacion" transform="translate(-1692 -7377.847)">
    <g id="Grupo_256" data-name="Grupo 256" transform="translate(1692 7377.847)">
      <g id="Grupo_255" data-name="Grupo 255">
        <g id="estrellas" transform="translate(0 4.027)">
          <g id="star-filled" transform="translate(0 6.486)">
            <path id="Trazado_93" data-name="Trazado 93" d="M7.527,3.125,5.819,6.587,2,7.139l2.764,2.7-.653,3.8,3.417-1.795,3.417,1.795-.653-3.8,2.764-2.692L9.236,6.587Z" transform="translate(-2 -3.125)" fill="#e33941"/>
          </g>
          <g id="star" transform="translate(36.027)">
            <path id="Trazado_94" data-name="Trazado 94" d="M7.527,4.822l1.036,2.1.173.375.375.056,2.313.334L9.78,9.3,9.5,9.572l.068.375.394,2.3L7.891,11.164l-.364-.154-.349.184-2.069,1.07.375-2.3.068-.375L5.274,9.3,3.615,7.665l2.313-.334L6.3,7.274,6.476,6.9,7.527,4.822m0-1.7L5.819,6.587,2,7.139l2.764,2.7-.653,3.8,3.417-1.795,3.417,1.795-.653-3.8,2.764-2.692L9.236,6.587Z" transform="translate(-2 -3.125)" fill="#e33941"/>
          </g>
          <g id="star-2" data-name="star" transform="translate(11.055)">
            <path id="Trazado_94-2" data-name="Trazado 94" d="M7.527,4.822l1.036,2.1.173.375.375.056,2.313.334L9.78,9.3,9.5,9.572l.068.375.394,2.3L7.891,11.164l-.364-.154-.349.184-2.069,1.07.375-2.3.068-.375L5.274,9.3,3.615,7.665l2.313-.334L6.3,7.274,6.476,6.9,7.527,4.822m0-1.7L5.819,6.587,2,7.139l2.764,2.7-.653,3.8,3.417-1.795,3.417,1.795-.653-3.8,2.764-2.692L9.236,6.587Z" transform="translate(-2 -3.125)" fill="#e33941"/>
          </g>
        </g>
        <g id="star-3" data-name="star" transform="translate(47.055 10.514)">
          <path id="Trazado_94-3" data-name="Trazado 94" d="M7.527,4.822l1.036,2.1.173.375.375.056,2.313.334L9.78,9.3,9.5,9.572l.068.375.394,2.3L7.891,11.164l-.364-.154-.349.184-2.069,1.07.375-2.3.068-.375L5.274,9.3,3.615,7.665l2.313-.334L6.3,7.274,6.476,6.9,7.527,4.822m0-1.7L5.819,6.587,2,7.139l2.764,2.7-.653,3.8,3.417-1.795,3.417,1.795-.653-3.8,2.764-2.692L9.236,6.587Z" transform="translate(-2 -3.125)" fill="#e33941"/>
        </g>
        <g id="star-4" data-name="star" transform="translate(24.027)">
          <path id="Trazado_94-4" data-name="Trazado 94" d="M7.527,4.822l1.036,2.1.173.375.375.056,2.313.334L9.78,9.3,9.5,9.572l.068.375.394,2.3L7.891,11.164l-.364-.154-.349.184-2.069,1.07.375-2.3.068-.375L5.274,9.3,3.615,7.665l2.313-.334L6.3,7.274,6.476,6.9,7.527,4.822m0-1.7L5.819,6.587,2,7.139l2.764,2.7-.653,3.8,3.417-1.795,3.417,1.795-.653-3.8,2.764-2.692L9.236,6.587Z" transform="translate(-2 -3.125)" fill="#e33941"/>
        </g>
      </g>
    </g>
    <g id="feed" transform="translate(1706 7391.135)">
      <path id="Trazado_363" data-name="Trazado 363" d="M9.071,22.377a1.024,1.024,0,1,0-1.024-1.024A1.024,1.024,0,0,0,9.071,22.377Zm0,2.047a3.071,3.071,0,1,1,3.071-3.071A3.071,3.071,0,0,1,9.071,24.424Zm13.277,0A17.4,17.4,0,0,0,6,8.077V6A18.424,18.424,0,0,1,24.424,24.424Zm-5.13,0A12.286,12.286,0,0,0,6,13.207V11.118A13.306,13.306,0,0,1,19.306,24.424Z" fill="#fcfcfc" fill-rule="evenodd"/>
    </g>
  </g>
</svg>
