<?xml version="1.0" encoding="UTF-8" standalone="no"?>
<!DOCTYPE svg PUBLIC "-//W3C//DTD SVG 1.1//EN" "http://www.w3.org/Graphics/SVG/1.1/DTD/svg11.dtd">
<svg width="100%" height="100%" viewBox="0 0 30 21" version="1.1" xmlns="http://www.w3.org/2000/svg" xmlns:xlink="http://www.w3.org/1999/xlink" xml:space="preserve" xmlns:serif="http://www.serif.com/" style="fill-rule:evenodd;clip-rule:evenodd;stroke-linejoin:round;stroke-miterlimit:2;">
    <g id="Grupo_161">
        <g id="Trazado_266" transform="matrix(1,0,0,1,-2.917,-7.292)">
            <rect x="2.917" y="7.292" width="17.5" height="2.917" style="fill:rgb(252,252,252);fill-rule:nonzero;"/>
        </g>
        <g id="Trazado_267" transform="matrix(1,0,0,1,-2.917,-7.292)">
            <rect x="2.917" y="13.125" width="17.5" height="2.917" style="fill:rgb(252,252,252);fill-rule:nonzero;"/>
        </g>
        <g id="Trazado_268" transform="matrix(1,0,0,1,-2.917,-7.292)">
            <rect x="2.917" y="18.958" width="11.666" height="2.917" style="fill:rgb(252,252,252);fill-rule:nonzero;"/>
        </g>
        <g id="Trazado_269" transform="matrix(1,0,0,1,-2.917,-7.292)">
            <path d="M23.333,13.125L26.25,13.125L26.25,18.958L32.083,18.958L32.083,21.875L26.25,21.875L26.25,27.708L23.333,27.708L23.333,21.875L17.5,21.875L17.5,18.958L23.333,18.958L23.333,13.125Z" style="fill:rgb(252,252,252);fill-rule:nonzero;"/>
        </g>
    </g>
</svg>
