<?xml version="1.0" encoding="UTF-8" standalone="no"?>
<!DOCTYPE svg PUBLIC "-//W3C//DTD SVG 1.1//EN" "http://www.w3.org/Graphics/SVG/1.1/DTD/svg11.dtd">
<svg width="100%" height="100%" viewBox="0 0 28 24" version="1.1" xmlns="http://www.w3.org/2000/svg" xmlns:xlink="http://www.w3.org/1999/xlink" xml:space="preserve" xmlns:serif="http://www.serif.com/" style="fill-rule:evenodd;clip-rule:evenodd;stroke-linejoin:round;stroke-miterlimit:2;">
    <g id="Grupo_1" transform="matrix(1,0,0,1,5.4407e-07,-0.00399867)">
        <g id="Trazado_27" transform="matrix(1,0,0,1,-4.094,-8.413)">
            <path d="M24.939,28.426C24.939,30.457 22.881,32.102 20.344,32.102C17.807,32.102 15.749,30.457 15.749,28.426C15.749,26.395 17.807,24.75 20.344,24.75C22.881,24.75 24.939,26.395 24.939,28.426Z" style="fill:white;fill-rule:nonzero;"/>
        </g>
        <g id="Trazado_28" transform="matrix(1,0,0,1,-5.927,-3.48)">
            <rect x="24.75" y="6.75" width="1.838" height="16.742" style="fill:white;"/>
        </g>
        <g id="Trazado_29" transform="matrix(1,0,0,1,-6.434,-2.746)">
            <path d="M24.75,5.686C24.751,4.814 25.373,4.057 26.228,3.886L31.742,2.786C31.861,2.762 31.982,2.75 32.104,2.75C33.112,2.75 33.941,3.578 33.942,4.586L33.942,7.855L24.75,9.692L24.75,5.686Z" style="fill:white;fill-rule:nonzero;"/>
        </g>
        <g id="Trazado_30" transform="matrix(1,0,0,1,0,-3.48)">
            <path d="M0,22.372C-0,21.868 0.415,21.453 0.919,21.453L7.351,21.453C7.855,21.453 8.27,21.868 8.27,22.372C8.27,22.876 7.855,23.291 7.351,23.291L0.919,23.291C0.415,23.291 0,22.876 0,22.372ZM0,15.02C-0,15.02 -0,15.019 -0,15.019C-0,14.515 0.415,14.1 0.919,14.1L14.7,14.1C15.204,14.1 15.619,14.515 15.619,15.019C15.619,15.523 15.204,15.938 14.7,15.938L0.919,15.938C0.415,15.938 0.001,15.524 -0,15.02ZM0,7.669C0,7.165 0.415,6.75 0.919,6.75L14.7,6.75C15.204,6.75 15.619,7.165 15.619,7.669C15.619,8.173 15.204,8.588 14.7,8.588L0.919,8.588C0.415,8.588 0,8.173 0,7.669Z" style="fill:white;"/>
        </g>
    </g>
</svg>
