<?xml version="1.0" encoding="UTF-8" standalone="no"?>
<!DOCTYPE svg PUBLIC "-//W3C//DTD SVG 1.1//EN" "http://www.w3.org/Graphics/SVG/1.1/DTD/svg11.dtd">
<svg width="100%" height="100%" viewBox="0 0 26 27" version="1.1" xmlns="http://www.w3.org/2000/svg" xmlns:xlink="http://www.w3.org/1999/xlink" xml:space="preserve" xmlns:serif="http://www.serif.com/" style="fill-rule:evenodd;clip-rule:evenodd;stroke-linejoin:round;stroke-miterlimit:2;">
    <g id="operations-record" transform="matrix(1,0,0,1,-2.27743,-1.873)">
        <rect id="Trazado_44" x="18.75" y="18.75" width="9.375" height="1.875" style="fill:rgb(252,252,252);fill-rule:nonzero;"/>
        <rect id="Trazado_45" x="18.75" y="22.5" width="9.375" height="1.875" style="fill:rgb(252,252,252);fill-rule:nonzero;"/>
        <path id="Trazado_47" d="M15,18.75C14.972,18.751 14.945,18.751 14.917,18.751C12.905,18.751 11.249,17.095 11.249,15.083C11.249,15.055 11.249,15.028 11.25,15C11.249,14.972 11.249,14.945 11.249,14.917C11.249,12.905 12.905,11.249 14.917,11.249C14.945,11.249 14.972,11.249 15,11.25C15.028,11.249 15.055,11.249 15.083,11.249C17.095,11.249 18.751,12.905 18.751,14.917C18.751,14.945 18.751,14.972 18.75,15L20.625,15C20.625,11.914 18.086,9.375 15,9.375C11.914,9.375 9.375,11.914 9.375,15C9.375,18.086 11.914,20.625 15,20.625L15,18.75Z" style="fill:rgb(252,252,252);fill-rule:nonzero;"/>
        <path id="Trazado_48" d="M27.473,10.354L25.261,6.521C24.816,5.749 23.879,5.395 23.035,5.682L20.753,6.454C20.36,6.189 19.949,5.952 19.523,5.743L19.051,3.38C18.876,2.507 18.103,1.873 17.213,1.873L12.788,1.873C11.898,1.873 11.125,2.507 10.95,3.38L10.477,5.741C10.046,5.947 9.631,6.184 9.233,6.448L6.964,5.682C6.121,5.396 5.184,5.749 4.74,6.521L2.528,10.354C2.083,11.125 2.245,12.112 2.913,12.7L4.723,14.291C4.707,14.527 4.687,14.762 4.687,15.001C4.687,15.24 4.696,15.482 4.713,15.719L2.914,17.3C2.245,17.888 2.082,18.875 2.527,19.646L4.739,23.478C5.184,24.25 6.121,24.604 6.965,24.317L9.247,23.545C9.64,23.81 10.051,24.048 10.477,24.257L10.949,26.618C11.124,27.491 11.898,28.125 12.788,28.125L15,28.125L15,26.25L12.788,26.25L12.122,22.922C11.203,22.579 10.35,22.081 9.6,21.448L6.364,22.541L4.151,18.709L6.706,16.464C6.531,15.494 6.529,14.501 6.7,13.531L4.151,11.29L6.364,7.459L9.577,8.546C10.333,7.912 11.195,7.415 12.122,7.078L12.788,3.75L17.213,3.75L17.879,7.078C18.798,7.421 19.651,7.919 20.4,8.552L23.632,7.459L25.845,11.291L23.222,13.591L24.461,15L27.086,12.7C27.755,12.112 27.918,11.125 27.473,10.354Z" style="fill:rgb(252,252,252);fill-rule:nonzero;"/>
    </g>
</svg>
