<?xml version="1.0" ?><svg height="32" id="icon" viewBox="0 0 32 32" width="32" xmlns="http://www.w3.org/2000/svg"><defs><style>
      .cls-1 {
        fill: none;
      }
    </style></defs><polygon points="26.41 25 30 21.41 28.59 20 25 23.59 21.41 20 20 21.41 23.59 25 20 28.59 21.41 30 25 26.41 28.59 30 30 28.59 26.41 25"/><path d="M18,2A12.0351,12.0351,0,0,0,6,14v6.2L2.4,16.6,1,18l6,6,6-6-1.4-1.4L8,20.2V14a10,10,0,0,1,20,0v3h2V14A12.0351,12.0351,0,0,0,18,2Z"/><rect class="cls-1" data-name="&lt;Transparent Rectangle&gt;" height="32" id="_Transparent_Rectangle_" width="32"/></svg>