<svg xmlns="http://www.w3.org/2000/svg" width="37.5" height="45.313" viewBox="0 0 37.5 45.313">
  <g id="rewind-10" transform="translate(0)">
    <path id="Trazado_95" data-name="Trazado 95" d="M6.25,28.125A18.75,18.75,0,1,0,25,9.375H18.75V1.563L9.375,10.938l9.375,9.375V12.5H25A15.625,15.625,0,1,1,9.375,28.125Z" transform="translate(-6.25 -1.563)" fill="#fcfcfc"/>
    <path id="Trazado_96" data-name="Trazado 96" d="M30.672,34.578a4.438,4.438,0,0,1-2-.422,3.813,3.813,0,0,1-1.391-1.2A5.578,5.578,0,0,1,26.469,31a12.016,12.016,0,0,1-.266-2.625,12.234,12.234,0,0,1,.266-2.625,5.7,5.7,0,0,1,.813-1.953,3.812,3.812,0,0,1,1.391-1.2,4.437,4.437,0,0,1,2-.422,3.812,3.812,0,0,1,3.375,1.563,8.172,8.172,0,0,1,1.094,4.578,8.172,8.172,0,0,1-1.094,4.578,3.813,3.813,0,0,1-3.375,1.688Zm0-1.906a1.672,1.672,0,0,0,1.563-.859,5.281,5.281,0,0,0,.578-2.359V27.3a5.172,5.172,0,0,0-.453-2.344,1.922,1.922,0,0,0-3.219,0,5.172,5.172,0,0,0-.453,2.344v2.156a5.281,5.281,0,0,0,.453,2.359A1.656,1.656,0,0,0,30.672,32.672Z" transform="translate(-6.25 -1.563)" fill="#fcfcfc"/>
    <path id="Trazado_97" data-name="Trazado 97" d="M16.609,34.375V32.531h3.125V24.422l-2.906,1.563-.859-1.656L19.594,22.3h2.281V32.453h2.781v1.922Z" transform="translate(-6.25 -1.563)" fill="#fcfcfc"/>
  </g>
</svg>
