<?xml version="1.0" encoding="UTF-8" standalone="no"?>
<!DOCTYPE svg PUBLIC "-//W3C//DTD SVG 1.1//EN" "http://www.w3.org/Graphics/SVG/1.1/DTD/svg11.dtd">
<svg width="100%" height="100%" viewBox="0 0 25 27" version="1.1" xmlns="http://www.w3.org/2000/svg" xmlns:xlink="http://www.w3.org/1999/xlink" xml:space="preserve" xmlns:serif="http://www.serif.com/" style="fill-rule:evenodd;clip-rule:evenodd;stroke-linejoin:round;stroke-miterlimit:2;">
    <g id="Trazado_39" transform="matrix(1,0,0,1,-3.75,-1.875)">
        <path d="M28.125,22.5L28.125,20.625L26.155,20.625C26.034,20.038 25.801,19.48 25.469,18.982L26.869,17.582L25.54,16.259L24.14,17.659C23.643,17.326 23.086,17.092 22.5,16.97L22.5,15L20.625,15L20.625,16.97C20.038,17.091 19.48,17.324 18.982,17.656L17.582,16.256L16.256,17.582L17.656,18.982C17.324,19.48 17.091,20.038 16.97,20.625L15,20.625L15,22.5L16.97,22.5C17.091,23.087 17.324,23.645 17.656,24.143L16.256,25.543L17.582,26.869L18.982,25.469C19.48,25.801 20.038,26.034 20.625,26.155L20.625,28.125L22.5,28.125L22.5,26.155C23.087,26.034 23.645,25.801 24.143,25.469L25.543,26.869L26.869,25.543L25.469,24.143C25.801,23.645 26.034,23.087 26.155,22.5L28.125,22.5ZM21.563,24.375C20.02,24.375 18.75,23.105 18.75,21.562C18.75,20.019 20.02,18.749 21.563,18.749C23.106,18.749 24.376,20.019 24.376,21.562C24.376,21.562 24.376,21.563 24.376,21.563C24.376,23.106 23.107,24.375 21.564,24.376L21.563,24.375Z" style="fill:rgb(252,252,252);fill-rule:nonzero;"/>
    </g>
    <g id="Trazado_40" transform="matrix(1,0,0,1,-3.75,-1.875)">
        <path d="M13.125,25L10.093,23.383C7.345,21.921 5.622,19.05 5.625,15.937L5.625,3.75L24.375,3.75L24.375,13.125L26.25,13.125L26.25,3.75C26.249,2.722 25.403,1.876 24.375,1.875L5.625,1.875C4.597,1.876 3.751,2.722 3.75,3.75L3.75,15.938C3.747,19.742 5.852,23.25 9.21,25.038L13.125,27.126L13.125,25Z" style="fill:rgb(252,252,252);fill-rule:nonzero;"/>
    </g>
</svg>
