<?xml version="1.0" encoding="UTF-8" standalone="no"?>
<!DOCTYPE svg PUBLIC "-//W3C//DTD SVG 1.1//EN" "http://www.w3.org/Graphics/SVG/1.1/DTD/svg11.dtd">
<svg width="100%" height="100%" viewBox="0 0 27 26" version="1.1" xmlns="http://www.w3.org/2000/svg" xmlns:xlink="http://www.w3.org/1999/xlink" xml:space="preserve" xmlns:serif="http://www.serif.com/" style="fill-rule:evenodd;clip-rule:evenodd;stroke-linejoin:round;stroke-miterlimit:2;">
    <g id="chat-right-dots" transform="matrix(1,0,0,1,3.73246e-06,3.06233e-32)">
        <g id="Grupo_254">
            <path id="Trazado_328" d="M3.349,1.675C2.431,1.676 1.676,2.431 1.675,3.349L1.675,16.749C1.675,17.668 2.431,18.424 3.35,18.424L19.4,18.424C20.288,18.424 21.139,18.777 21.767,19.405L25.117,22.755L25.117,3.349C25.117,2.43 24.361,1.674 23.442,1.674L3.349,1.675ZM23.445,0C25.282,-0 26.794,1.512 26.794,3.349C26.794,3.349 26.794,24.773 26.794,24.773C26.794,25.232 26.416,25.61 25.957,25.61C25.735,25.61 25.521,25.522 25.364,25.364L20.586,20.586C20.271,20.273 19.844,20.098 19.4,20.1C19.4,20.1 3.349,20.1 3.349,20.1C1.512,20.1 -0,18.588 -0,16.751C-0,16.749 -0,16.748 -0,16.746L0,3.349C-0,1.512 1.512,0 3.349,0L23.445,0Z" style="fill:rgb(201,201,201);fill-rule:nonzero;"/>
            <g id="Trazado_329" transform="matrix(1,0,0,1,1.274,2.123)">
                <path d="M7.1,7.925C7.1,8.844 6.344,9.6 5.425,9.6C4.506,9.6 3.75,8.844 3.75,7.925C3.75,7.006 4.506,6.25 5.425,6.25C6.344,6.25 7.1,7.006 7.1,7.925ZM13.8,7.925C13.8,8.844 13.044,9.6 12.125,9.6C11.206,9.6 10.45,8.844 10.45,7.925C10.45,7.007 11.205,6.251 12.123,6.25C12.124,6.25 12.124,6.25 12.125,6.25C13.044,6.25 13.8,7.006 13.8,7.925L13.8,7.925ZM20.5,7.925C20.5,8.844 19.744,9.6 18.825,9.6C17.906,9.6 17.15,8.844 17.15,7.925C17.15,7.007 17.904,6.252 18.822,6.25C18.823,6.25 18.824,6.25 18.825,6.25C19.744,6.25 20.5,7.006 20.5,7.925C20.5,7.925 20.5,7.925 20.5,7.925Z" style="fill:rgb(201,201,201);fill-rule:nonzero;"/>
            </g>
        </g>
    </g>
</svg>
