<svg xmlns="http://www.w3.org/2000/svg" width="315" height="131" viewBox="0 0 315 131">
  <g id="Subir_imagen_y_close" data-name="Subir imagen y close" transform="translate(-30 -226)">
    <g id="Imagen_de_perfil_subir" data-name="Imagen de perfil subir" transform="translate(0 -61)">
      <circle id="Elipse_14" data-name="Elipse 14" cx="65.5" cy="65.5" r="65.5" transform="translate(30 287)" fill="rgba(252,252,252,0.36)"/>
      <g id="add-image" transform="translate(68 326.75)">
        <g id="Grupo_3" data-name="Grupo 3">
          <path id="Trazado_32" data-name="Trazado 32" d="M51.75,9v4.5H45v6.75H40.5V13.5H33.75V9H40.5V2.25H45V9ZM32.625,24.75a3.376,3.376,0,1,0-3.377-3.375A3.376,3.376,0,0,0,32.625,24.75ZM40.5,32.027l-1.154-1.283a4.5,4.5,0,0,0-6.7,0l-1.476,1.645L20.25,20.25l-6.75,7.5V13.5H29.25V9H13.5A4.5,4.5,0,0,0,9,13.5v27A4.5,4.5,0,0,0,13.5,45h27A4.5,4.5,0,0,0,45,40.5V24.75H40.5Z" fill="#fcfcfc"/>
        </g>
      </g>
    </g>
    <text id="Subir_imagen" data-name="Subir 
imagen" transform="translate(178 271)" fill="#fcfcfc" font-size="18" font-family="HelveticaNeue-Bold, Helvetica Neue" font-weight="700"><tspan x="0" y="0">Subir </tspan><tspan x="0" y="23">imagen</tspan></text>
    <path id="close" d="M25.5,9.075,23.925,7.5,16.5,14.925,9.075,7.5,7.5,9.075,14.925,16.5,7.5,23.925,9.075,25.5,16.5,18.075,23.925,25.5,25.5,23.925,18.075,16.5Z" transform="translate(319.5 218.5)" fill="#fcfcfc"/>
  </g>
</svg>
